<?xml version="1.0" encoding="UTF-8" standalone="no"?>
<!-- Created with Inkscape (http://www.inkscape.org/) -->

<svg
   xmlns:dc="http://purl.org/dc/elements/1.1/"
   xmlns:cc="http://creativecommons.org/ns#"
   xmlns:rdf="http://www.w3.org/1999/02/22-rdf-syntax-ns#"
   xmlns:svg="http://www.w3.org/2000/svg"
   xmlns="http://www.w3.org/2000/svg"
   xmlns:sodipodi="http://sodipodi.sourceforge.net/DTD/sodipodi-0.dtd"
   xmlns:inkscape="http://www.inkscape.org/namespaces/inkscape"
   width="17.198702mm"
   height="12.161481mm"
   viewBox="0 0 17.198702 12.161481"
   version="1.1"
   id="svg8"
   inkscape:version="0.92.3 (2405546, 2018-03-11)"
   sodipodi:docname="logo.svg">
  <defs
     id="defs2" />
  <sodipodi:namedview
     id="base"
     pagecolor="#ffffff"
     bordercolor="#666666"
     borderopacity="1.0"
     inkscape:pageopacity="0.0"
     inkscape:pageshadow="2"
     inkscape:zoom="5.6568543"
     inkscape:cx="40.810435"
     inkscape:cy="-39.400984"
     inkscape:document-units="mm"
     inkscape:current-layer="g975"
     showgrid="true"
     inkscape:window-width="2560"
     inkscape:window-height="1372"
     inkscape:window-x="0"
     inkscape:window-y="0"
     inkscape:window-maximized="1">
    <inkscape:grid
       type="xygrid"
       id="grid913"
       originx="-84.666661"
       originy="-182.77782" />
  </sodipodi:namedview>
  <metadata
     id="metadata5">
    <rdf:RDF>
      <cc:Work
         rdf:about="">
        <dc:format>image/svg+xml</dc:format>
        <dc:type
           rdf:resource="http://purl.org/dc/dcmitype/StillImage" />
        <dc:title></dc:title>
      </cc:Work>
    </rdf:RDF>
  </metadata>
  <g
     inkscape:groupmode="layer"
     id="layer4"
     inkscape:label="lower"
     style="display:inline"
     transform="translate(-84.666661,-102.0607)" />
  <g
     inkscape:groupmode="layer"
     id="layer5"
     inkscape:label="upper"
     style="display:inline"
     transform="translate(-84.666661,-102.0607)">
    <g
       id="g975"
       transform="matrix(0.81253714,0,0,1.5930875,15.871852,-70.615799)">
      <path
         sodipodi:nodetypes="csssccccc"
         inkscape:connector-curvature="0"
         id="path851"
         d="m 105.83333,114.17292 c -2.64583,0.26458 -3.68767,0.68714 -5.29166,0.79649 -2.880088,0.19636 -4.762503,-0.003 -5.291671,0.001 -0.529166,0.004 -2.645832,0.26084 -5.291668,-0.0181 -1.338951,-0.14116 -2.645831,-0.51481 -5.291667,-0.77941 h 3e-6 c 1.322916,-0.79375 7.9375,-0.52917 10.583333,0.52916 2.645833,-1.05833 9.25945,-1.32282 10.58237,-0.52907 z"
         style="display:inline;fill:#848484;fill-opacity:1;stroke:none;stroke-width:0.06816643px;stroke-linecap:butt;stroke-linejoin:miter;stroke-opacity:1" />
      <path
         sodipodi:nodetypes="ccccccscscc"
         inkscape:connector-curvature="0"
         id="path932"
         d="m 105.83333,114.17292 -5.29166,1.05833 -5.291671,0.26458 -5.291667,-0.26458 -5.291665,-1.05833 v 0 c 1.442371,0.43271 3.277893,1.50191 5.292243,1.66296 1.680702,0.13438 3.485895,0.18912 5.291089,0.18912 1.81155,0 3.623101,-0.0551 5.308841,-0.19054 2.00738,-0.16125 3.83636,-1.2301 5.27449,-1.66154 z"
         style="fill:#c1c1c1;fill-opacity:1;stroke:none;stroke-width:0.26458332px;stroke-linecap:butt;stroke-linejoin:miter;stroke-opacity:1" />
      <path
         sodipodi:nodetypes="cscsccssscc"
         inkscape:connector-curvature="0"
         id="path849"
         d="m 105.83333,114.17292 c -1.6487,0.34669 -3.50029,1.07546 -5.27459,1.26186 -2.002207,0.21035 -3.90599,0.31148 -5.308747,0.28722 -1.442555,0.025 -3.275834,-0.15226 -5.28957,-0.43141 -1.679707,-0.23285 -3.484969,-0.80119 -5.293756,-1.11767 h -3e-6 c 2.381253,0 3.952711,0.63826 5.291667,0.77941 2.645836,0.27892 4.762502,0.0143 5.291668,0.0181 0.529168,0.004 2.739018,0.1501 5.291671,-10e-4 1.63262,-0.0967 2.91041,-0.79651 5.2907,-0.7964 z"
         style="display:inline;fill:#505050;fill-opacity:1;stroke:none;stroke-width:0.06816643px;stroke-linecap:butt;stroke-linejoin:miter;stroke-opacity:1" />
    </g>
  </g>
  <g
     inkscape:label="Layer 1"
     inkscape:groupmode="layer"
     id="layer1"
     style="display:inline"
     transform="translate(-84.666661,-102.0607)">
    <text
       xml:space="preserve"
       style="font-style:normal;font-weight:normal;font-size:11.17567253px;line-height:1.25;font-family:sans-serif;letter-spacing:0px;word-spacing:0px;fill:#848484;fill-opacity:1;stroke:none;stroke-width:0.2793918"
       x="79.591209"
       y="114.03197"
       id="text817"
       transform="scale(1.055969,0.94699747)"><tspan
         sodipodi:role="line"
         id="tspan815"
         x="79.591209"
         y="114.03197"
         style="fill:#848484;fill-opacity:1;stroke-width:0.2793918"
         dx="0 -1.4691113 -1.4691113">eye</tspan></text>
  </g>
  <g
     inkscape:groupmode="layer"
     id="layer2"
     inkscape:label="Layer 2"
     style="display:inline"
     transform="translate(-84.666661,-102.0607)" />
  <g
     inkscape:groupmode="layer"
     id="layer3"
     inkscape:label="Layer 3"
     style="display:none"
     transform="translate(-84.666661,-102.0607)">
    <path
       style="fill:none;stroke:#000000;stroke-width:0.26458332px;stroke-linecap:butt;stroke-linejoin:miter;stroke-opacity:1"
       d="m 69.771698,130.06356 14.179929,0.4834 9.668134,0.64455 6.606559,2.09476 4.9952,1.93362 5.31747,-0.64454 4.18953,-1.77249 9.18472,-2.41703 11.44063,-0.32227 10.79608,-0.48341 10.31268,-0.48341"
       id="path832"
       inkscape:connector-curvature="0" />
    <path
       style="fill:none;stroke:#000000;stroke-width:0.26458332px;stroke-linecap:butt;stroke-linejoin:miter;stroke-opacity:1"
       d="m 69.389489,133.60997 17.204947,1.36728 10.368544,0.45576 7.17822,0.42728 8.1752,-0.14243 16.99489,-0.25626 15.22731,-1.04738 10.95722,-0.32227"
       id="path836"
       inkscape:connector-curvature="0" />
    <path
       style="fill:none;stroke:#000000;stroke-width:0.26458332px;stroke-linecap:butt;stroke-linejoin:miter;stroke-opacity:1"
       d="m 69.90222,135.37604 17.603737,1.48122 11.280063,0.51273 4.61457,-0.34182 3.13335,-0.17091 5.07034,-0.22788 3.70305,0.5697 6.26945,0.35728 12.04488,-0.28199 6.96912,-1.2488 11.11835,-0.56397 3.78669,-1.36965"
       id="path838"
       inkscape:connector-curvature="0" />
    <path
       style="fill:none;stroke:#000000;stroke-width:0.26458332px;stroke-linecap:butt;stroke-linejoin:miter;stroke-opacity:1"
       d="m 110.74973,151.84038 -5.92489,3.53214"
       id="path840"
       inkscape:connector-curvature="0" />
  </g>
</svg>
